<svg id="SvgjsSvg1014" width="288" height="288" xmlns="http://www.w3.org/2000/svg" version="1.1" xmlns:xlink="http://www.w3.org/1999/xlink" xmlns:svgjs="http://svgjs.com/svgjs"><defs id="SvgjsDefs1015"></defs><g id="SvgjsG1016"><svg xmlns="http://www.w3.org/2000/svg" enable-background="new 0 0 70 70" viewBox="0 0 70 70" width="288" height="288"><path fill="#3b4652" d="M41.1407471 47.0648804h1.3221436v-4.31073l3.3947144-5.8133545h-1.4873047l-1.4567261 2.7941284c-.3907471.765625-.7362671 1.4267578-1.0218506 2.0878296h-.0299683c-.3155518-.7063599-.6158447-1.3222046-1.0065918-2.0878296l-1.4267578-2.7941284h-1.4873047l3.199646 5.8280029V47.0648804zM31.4599609 47.0599976l1.0500488-3.1799927h3.5899658l1.0900269 3.1799927h1.3899536l-3.4499512-10.1199951h-1.5800171l-3.4400024 10.1199951H31.4599609zM33.7799683 39.9299927c.1900024-.6199951.3599854-1.2299805.5100098-1.8300171h.0300293c.1499634.5800171.2999878 1.1799927.5199585 1.8400269l.9899902 2.9199829h-3.0499878L33.7799683 39.9299927zM25.4499512 43.0100098C25.75 43.0799561 26.1099854 43.0999756 26.5 43.0999756c1.2799683 0 2.4099731-.3800049 3.0999756-1.1099854.5100098-.5300293.7800293-1.25.7800293-2.1699829 0-.9000244-.3300171-1.6300049-.8900146-2.1100464-.6000366-.539978-1.5499878-.8399658-2.8400269-.8399658-1.0499878 0-1.8800049.0899658-2.5100098.1900024v10h1.3099976V43.0100098zM25.4499512 38.0100098c.2300415-.0599976.6600342-.1100464 1.2300415-.1100464 1.4400024 0 2.3900146.6500244 2.3900146 1.9800415 0 1.3999634-.960022 2.1699829-2.5400391 2.1699829-.4299927 0-.789978-.0300293-1.0800171-.1099854V38.0100098zM52.9799805 2h-35.960022c-2.7299805 0-4.9599609 2.2199707-4.9599609 4.9599609V11.5h45.8800049V6.9599609C57.9400024 4.2199707 55.7099609 2 52.9799805 2zM37.6300049 7.75h-5.25c-.5599976 0-1-.4500122-1-1s.4400024-1 1-1h5.25c.5499878 0 1 .4500122 1 1S38.1799927 7.75 37.6300049 7.75z" class="color3B4652 svgShape"></path><path fill="#2b79c2" d="M12.0599976,13.5V54h45.8800049V13.5H12.0599976z M44.8599854,18.7399902
		c1.6500244,0,2.5800171,1.4699707,2.5800171,3.9500122c0,2.6499634-0.9800415,4.1099854-2.710022,4.1099854
		c-1.5200195,0-2.5499878-1.4199829-2.5800171-4C42.1499634,20.1799927,43.2799683,18.7399902,44.8599854,18.7399902z
		 M38.7099609,18.7399902c1.6400146,0,2.5800171,1.4699707,2.5800171,3.9500122c0,2.6499634-0.9899902,4.1099854-2.710022,4.1099854
		c-1.5299683,0-2.5599976-1.4199829-2.5799561-4C36,20.1799927,37.1199951,18.7399902,38.7099609,18.7399902z
		 M32.5499878,18.7399902c1.6400146,0,2.5800171,1.4699707,2.5800171,3.9500122c0,2.6499634-0.9800415,4.1099854-2.710022,4.1099854
		c-1.5200195,0-2.5499878-1.4199829-2.5800171-4C29.8399658,20.1799927,30.9699707,18.7399902,32.5499878,18.7399902z
		 M23.789978,26.0199585l0.8300171-0.7999878c1.9899902-1.8999634,2.8900146-2.8999634,2.8999634-4.0799561
		c0-0.7900391-0.3800049-1.5200195-1.539978-1.5200195c-0.710022,0-1.2999878,0.3599854-1.6599731,0.6599731l-0.3300171-0.75
		c0.539978-0.4500122,1.2999878-0.789978,2.2000122-0.789978c1.6799927,0,2.3899536,1.1500244,2.3899536,2.2700195
		c0,1.4400024-1.039978,2.5999756-2.6900024,4.1900024l-0.6199951,0.5699463v0.0300293h3.5v0.8699951H23.789978V26.0199585z
		 M51.3999634,49.6099854c0,0.5599976-0.4500122,1-1,1H19.5999756c-0.5499878,0-1-0.4400024-1-1v-15.289978
		c0-0.5599976,0.4500122-1,1-1h30.7999878c0.5499878,0,1,0.4400024,1,1V49.6099854z" class="color2B79C2 svgShape"></path><path fill="#2b79c2" d="M34.0799561 22.7399902c0 1.9899902-.5199585 3.25-1.5999756 3.25-.960022 0-1.5800171-1.1500244-1.5800171-3.1799927 0-2.1199951.6700439-3.25 1.5900269-3.25C33.5799561 19.5599976 34.0799561 20.8200073 34.0799561 22.7399902zM40.2299805 22.7399902c0 1.9899902-.5100098 3.25-1.5900269 3.25-.9599609 0-1.5899658-1.1500244-1.5899658-3.1799927 0-2.1199951.6699829-3.25 1.5999756-3.25C39.7399902 19.5599976 40.2299805 20.8200073 40.2299805 22.7399902zM46.3899536 22.7399902c0 1.9899902-.5199585 3.25-1.5999756 3.25-.960022 0-1.5800171-1.1500244-1.5800171-3.1799927 0-2.1199951.6700439-3.25 1.5900269-3.25C45.8999634 19.5599976 46.3899536 20.8200073 46.3899536 22.7399902z" class="color2B79C2 svgShape"></path><path fill="#3b4652" d="M12.0599976,63.039978C12.0599976,65.7799683,14.289978,68,17.0199585,68h35.960022
		c2.7299805,0,4.960022-2.2200317,4.960022-4.960022V56H12.0599976V63.039978z M35,60.3299561
		c0.9199829,0,1.6699829,0.75,1.6699829,1.6700439c0,0.9199829-0.75,1.6699829-1.6699829,1.6699829
		c-0.9200439,0-1.6700439-0.75-1.6700439-1.6699829C33.3299561,61.0799561,34.0799561,60.3299561,35,60.3299561z" class="color3B4652 svgShape"></path></svg></g></svg>