<svg xmlns="http://www.w3.org/2000/svg" version="1.1" xmlns:xlink="http://www.w3.org/1999/xlink" width="512" height="512" x="0" y="0" viewBox="0 0 511.996 511.996" style="enable-background:new 0 0 512 512" xml:space="preserve"><g><path fill="#695e66" d="M386.123 511.996h-260.25c-9.941 0-18-8.059-18-18V18c0-9.941 8.059-18 18-18h260.25c9.941 0 18 8.059 18 18v475.996c0 9.941-8.059 18-18 18z" opacity="1" data-original="#695e66"></path><path fill="#453e43" d="M386.119 0h-20.365v455.622c0 9.944-8.061 18.004-18.004 18.004H107.873v20.365c0 9.944 8.061 18.004 18.004 18.004h260.241c9.944 0 18.004-8.061 18.004-18.004V18.004C404.123 8.061 396.062 0 386.119 0z" opacity="1" data-original="#453e43"></path><path fill="#62d8f9" d="M363.582 421.139h-216.69a8 8 0 0 1-8-8V62.311a8 8 0 0 1 8-8h216.69a8 8 0 0 1 8 8V413.14a8 8 0 0 1-8 7.999z" opacity="1" data-original="#62d8f9"></path><path fill="#00bef7" d="M363.58 54.311h-13.746v337.078a8.002 8.002 0 0 1-8.002 8.002h-202.94v13.747a8.002 8.002 0 0 0 8.002 8.002H363.58a8.002 8.002 0 0 0 8.002-8.002V62.313a8.002 8.002 0 0 0-8.002-8.002z" opacity="1" data-original="#00bef7"></path><circle cx="255.998" cy="465.819" r="14.347" fill="#453e43" opacity="1" data-original="#453e43"></circle><path fill="#fce25c" d="M219.783 155.446h-41.729a6.359 6.359 0 0 1-6.358-6.358v-41.729a6.359 6.359 0 0 1 6.358-6.358h41.729a6.359 6.359 0 0 1 6.358 6.358v41.729a6.357 6.357 0 0 1-6.358 6.358z" opacity="1" data-original="#fce25c"></path><path fill="#f1faff" d="M297.333 245.096h-41.729a6.359 6.359 0 0 1-6.358-6.358V197.01a6.359 6.359 0 0 1 6.358-6.358h41.729a6.359 6.359 0 0 1 6.358 6.358v41.729a6.357 6.357 0 0 1-6.358 6.357z" opacity="1" data-original="#f1faff"></path><path fill="#fb636f" d="M219.783 245.16h-41.729a6.359 6.359 0 0 1-6.358-6.358v-41.729a6.359 6.359 0 0 1 6.358-6.358h41.729a6.359 6.359 0 0 1 6.358 6.358v41.729a6.358 6.358 0 0 1-6.358 6.358z" opacity="1" data-original="#fb636f"></path><circle cx="276.469" cy="132.826" r="27.222" fill="#fa989e" opacity="1" data-original="#fa989e"></circle><circle cx="198.919" cy="306.586" r="27.222" fill="#e0dde2" opacity="1" data-original="#e0dde2"></circle><path fill="#f1faff" d="M270.08 385.622h-28.163c-4.144 0-7.502-3.359-7.502-7.502s3.358-7.502 7.502-7.502h28.163c4.144 0 7.502 3.359 7.502 7.502s-3.358 7.502-7.502 7.502zM326.344 385.622h-28.163c-4.144 0-7.502-3.359-7.502-7.502s3.358-7.502 7.502-7.502h28.163a7.502 7.502 0 1 1 0 15.004zM213.001 385.622h-28.163c-4.144 0-7.502-3.359-7.502-7.502s3.358-7.502 7.502-7.502h28.163a7.502 7.502 0 1 1 0 15.004z" opacity="1" data-original="#f1faff"></path></g></svg>