<svg xmlns="http://www.w3.org/2000/svg" version="1.1" xmlns:xlink="http://www.w3.org/1999/xlink" width="512" height="512" x="0" y="0" viewBox="0 0 512 512" style="enable-background:new 0 0 512 512" xml:space="preserve" class=""><g><path fill="#5d84d9" d="M31.352 459.461V257.264c0-29.016 23.522-52.539 52.539-52.539h139.493c29.016 0 52.539 23.522 52.539 52.539v202.197c0 29.016-23.522 52.539-52.539 52.539H83.891c-29.017 0-52.539-23.522-52.539-52.539z" opacity="1" data-original="#5d84d9" class=""></path><path fill="#2e67cf" d="m269.948 389.393 5.975-5.975V257.265c0-29.016-23.522-52.539-52.539-52.539h-63.45l-37.327 37.327c-24.816 24.816-24.816 65.196 0 90.013l57.328 57.328c24.878 24.877 65.138 24.873 90.013-.001z" opacity="1" data-original="#2e67cf" class=""></path><path fill="#f8ea69" d="M85.975 239.803c-10.795 0-19.546 8.751-19.546 19.546v165.142c0 10.795 8.751 19.546 19.546 19.546h135.324c10.795 0 19.546-8.751 19.546-19.546v-18.467L124.856 239.803z" opacity="1" data-original="#f8ea69" class=""></path><path fill="#fdc072" d="M240.845 406.024V259.349c0-10.795-8.751-19.546-19.546-19.546h-96.443l-2.249 2.249c-24.816 24.816-24.816 65.196 0 90.013l57.328 57.328c16.524 16.524 39.83 22.057 60.91 16.631z" opacity="1" data-original="#fdc072" class=""></path><g fill="#fff"><path d="M115.33 485.519H96.049a7.5 7.5 0 0 1 0-15h19.281a7.5 7.5 0 0 1 0 15zM211.226 485.519h-19.281a7.5 7.5 0 0 1 0-15h19.281a7.5 7.5 0 0 1 0 15z" fill="#ffffff" opacity="1" data-original="#ffffff" class=""></path></g><path fill="#5d84d9" d="M236.077 254.736V52.539C236.077 23.522 259.6 0 288.616 0h139.493c29.016 0 52.539 23.522 52.539 52.539v202.197c0 29.016-23.522 52.539-52.539 52.539H288.616c-29.016-.001-52.539-23.523-52.539-52.539z" opacity="1" data-original="#5d84d9" class=""></path><path fill="#2e67cf" d="M332.065 122.607c-24.876-24.878-65.14-24.874-90.013-.001l-5.975 5.975v126.153c0 29.016 23.522 52.539 52.539 52.539h63.451l37.327-37.327c24.815-24.816 24.815-65.195-.001-90.012z" opacity="1" data-original="#2e67cf" class=""></path><path fill="#f8ea69" d="M426.025 35.077H290.701c-10.795 0-19.546 8.751-19.546 19.546v51.353c28.848 28.847 119.004 117.134 135.206 133.336h19.664c10.795 0 19.546-8.751 19.546-19.546V54.623c0-10.795-8.751-19.546-19.546-19.546z" opacity="1" data-original="#f8ea69" class=""></path><path fill="#fdc072" d="M332.065 122.607c-16.522-16.524-39.83-22.057-60.911-16.631v113.79c0 10.795 8.751 19.546 19.546 19.546h115.66c4.76-20.682-.887-43.295-16.967-59.376z" opacity="1" data-original="#fdc072" class=""></path><g fill="#fff"><path d="M320.056 280.793h-19.281c-4.143 0-7.5-3.358-7.5-7.5s3.357-7.5 7.5-7.5h19.281a7.5 7.5 0 0 1 0 15zM415.951 280.793H396.67c-4.143 0-7.5-3.358-7.5-7.5s3.357-7.5 7.5-7.5h19.281c4.143 0 7.5 3.358 7.5 7.5s-3.357 7.5-7.5 7.5z" fill="#ffffff" opacity="1" data-original="#ffffff" class=""></path></g><path fill="#5d84d9" d="m364.251 381.053 4.888 4.888a4.389 4.389 0 0 1 0 6.207l-43.51 43.511c-7.43 7.43-7.43 19.477 0 26.907l18.912 18.912c7.43 7.43 19.477 7.43 26.907 0l43.511-43.51a4.389 4.389 0 0 1 6.207 0l4.888 4.888c10.986 10.986 29.77 3.205 29.77-12.331v-57.341c0-12.095-9.805-21.901-21.901-21.9h-57.341c-15.536-.001-23.317 18.783-12.331 29.769z" opacity="1" data-original="#5d84d9" class=""></path><path fill="#2e67cf" d="m421.165 437.967 4.888 4.888c10.265 10.265 27.335 4.143 29.531-9.379-28.021-1.686-65.545-47.153-53.244-82.193h-25.758c-15.536 0-23.317 18.784-12.331 29.77l4.888 4.888a4.389 4.389 0 0 1 0 6.207l-43.511 43.511c-7.43 7.43-7.43 19.477 0 26.907l18.912 18.912c7.43 7.43 19.477 7.43 26.907 0l43.511-43.51a4.388 4.388 0 0 1 6.207-.001z" opacity="1" data-original="#2e67cf" class=""></path><path fill="#ff6e80" d="m147.749 130.947-4.888-4.888a4.389 4.389 0 0 1 0-6.207l43.51-43.511c7.43-7.43 7.43-19.477 0-26.907l-18.912-18.912c-7.43-7.43-19.477-7.43-26.907 0l-43.511 43.51a4.389 4.389 0 0 1-6.207 0l-4.888-4.888c-10.986-10.986-29.77-3.205-29.77 12.331v57.341c0 12.095 9.805 21.9 21.9 21.9h57.341c15.537.001 23.318-18.783 12.332-29.769z" opacity="1" data-original="#ff6e80" class=""></path><path fill="#38d39a" d="m366.083 203.245-57.329-57.329c-11.982-11.982-31.409-11.982-43.392 0l-20.461 20.461c-27.092 52.584-6.539 148.071 66.172 135.269l55.01-55.01c11.982-11.981 11.982-31.408 0-43.391z" opacity="1" data-original="#38d39a" class=""></path><path fill="#00b662" d="m244.902 166.378-98.985 98.985c-11.982 11.982-11.982 31.409 0 43.392l57.329 57.329c11.982 11.982 31.409 11.982 43.392 0l64.437-64.437c-58.688-11.138-76.434-93.564-66.173-135.269z" opacity="1" data-original="#00b662" class=""></path><ellipse cx="256" cy="256" fill="#00b662" rx="31.437" ry="32.759" transform="rotate(-45 255.972 256.066)" opacity="1" data-original="#00b662" class=""></ellipse><path fill="#008b49" d="M245.981 225.111a30.286 30.286 0 0 0-13.145 7.725c-12.277 12.277-11.858 32.6.935 45.393 11.526 11.526 29.162 13.002 41.521 4.204-14.942-14.836-24.481-35.956-29.311-57.322z" opacity="1" data-original="#008b49" class=""></path><path fill="#f8475e" d="M153.531 109.182c-15.644-9.559-31.602-35.704-30.04-61.598L97.042 74.033a4.389 4.389 0 0 1-6.207 0l-4.888-4.888c-10.986-10.986-29.77-3.205-29.77 12.331v57.341c0 12.095 9.805 21.9 21.9 21.9h57.341c15.536 0 23.317-18.784 12.331-29.77l-4.888-4.888a4.389 4.389 0 0 1 0-6.207z" opacity="1" data-original="#f8475e" class=""></path><path fill="#008b49" d="M201.629 317.871a7.474 7.474 0 0 1-5.303-2.197 7.5 7.5 0 0 1 0-10.606l9.05-9.05a7.5 7.5 0 0 1 10.606 0 7.5 7.5 0 0 1 0 10.606l-9.05 9.05a7.474 7.474 0 0 1-5.303 2.197z" opacity="1" data-original="#008b49" class=""></path><path fill="#00b662" d="M301.321 218.179a7.5 7.5 0 0 1-5.304-12.803l9.05-9.05a7.5 7.5 0 0 1 10.607 10.606l-9.05 9.05a7.478 7.478 0 0 1-5.303 2.197z" opacity="1" data-original="#00b662" class=""></path></g></svg>