<svg xmlns="http://www.w3.org/2000/svg" version="1.1" xmlns:xlink="http://www.w3.org/1999/xlink" width="512" height="512" x="0" y="0" viewBox="0 0 64 64" style="enable-background:new 0 0 512 512" xml:space="preserve" class=""><g><circle cx="32" cy="32" r="30" fill="#02298d" opacity="1" data-original="#758190" class=""></circle><circle cx="32" cy="31" r="6" fill="#0193b4" opacity="1" data-original="#d5cec2" class=""></circle><path fill="#0193b4" d="M39 57H25a2 2 0 0 1-2-2v-9a9 9 0 0 1 9-9 9 9 0 0 1 9 9v9a2 2 0 0 1-2 2z" opacity="1" data-original="#d5cec2" class=""></path><path fill="#0193b4" d="m44.601 48.8-1.202-1.599C48.23 43.573 51 38.032 51 31.999c0-10.477-8.522-19-18.999-19-10.478 0-19 8.523-19 19 0 6.033 2.77 11.574 7.6 15.202L19.397 48.8C14.061 44.791 11 38.667 11 31.999c0-11.579 9.42-21 21-21 11.579 0 20.999 9.421 20.999 21 0 6.668-3.061 12.792-8.398 16.801z" opacity="1" data-original="#8892a0" class=""></path><path fill="#0193b4" d="M19.703 43.739A16.923 16.923 0 0 1 15 32c0-9.374 7.625-17 16.999-17 9.373 0 16.999 7.625 16.999 17 0 4.387-1.665 8.551-4.689 11.725l-1.448-1.379a14.93 14.93 0 0 0 4.138-10.345c0-8.271-6.729-15-14.999-15S17 23.729 17 32c0 3.878 1.474 7.557 4.149 10.358z" opacity="1" data-original="#a8b0bc" class=""></path><path fill="#0193b4" d="M21.442 39.587a12.904 12.904 0 0 1-2.443-7.588c0-7.168 5.831-13 13-13 7.168 0 12.999 5.832 12.999 13a12.91 12.91 0 0 1-2.416 7.551l-1.628-1.163a10.92 10.92 0 0 0 2.044-6.389c0-6.065-4.935-11-10.999-11-6.065 0-11 4.935-11 11 0 2.322.714 4.542 2.066 6.419z" opacity="1" data-original="#c1c8d1" class=""></path><path fill="#0193b4" d="M57.999 31.999h-2C55.999 18.766 45.233 8 32 8V6c14.336 0 25.999 11.663 25.999 25.999z" opacity="1" data-original="#a8b0bc" class=""></path><g fill="#e7e4dd"><path d="M26 31a5.997 5.997 0 0 0 5.836 5.992 17.993 17.993 0 0 0 1.212-6.464c0-1.926-.308-3.778-.866-5.519-.061-.002-.12-.009-.182-.009a6 6 0 0 0-6 6zM31.83 37.009C26.939 37.1 23 41.087 23 46v.698a18.092 18.092 0 0 0 8.83-9.689z" fill="#0193b4" opacity="1" data-original="#e7e4dd" class=""></path></g></g></svg>