<svg xmlns="http://www.w3.org/2000/svg" version="1.1" xmlns:xlink="http://www.w3.org/1999/xlink" width="512" height="512" x="0" y="0" viewBox="0 0 512 512" style="enable-background:new 0 0 512 512" xml:space="preserve"><g><linearGradient id="a" x1="256" x2="256" y1="429.939" y2="82.061" gradientUnits="userSpaceOnUse"><stop offset="0" stop-color="#cadfef"></stop><stop offset="1" stop-color="#eff4f9"></stop></linearGradient><path fill="url(#a)" d="M476.212 290.788h-73.31c19.213 0 34.788-15.575 34.788-34.788 0-19.213-15.575-34.788-34.788-34.788h73.31c19.213 0 34.788-15.575 34.788-34.788s-15.575-34.788-34.788-34.788H265.378c19.213 0 34.788-15.575 34.788-34.788S284.591 82.06 265.378 82.06H35.788C16.575 82.061 1 97.636 1 116.849s15.575 34.788 34.788 34.788h73.31c-19.213 0-34.788 15.575-34.788 34.788s15.575 34.788 34.788 34.788h-73.31C16.575 221.212 1 236.787 1 256c0 19.212 15.575 34.788 34.788 34.788h73.31c-19.213 0-34.788 15.575-34.788 34.788s15.575 34.788 34.788 34.788H63.802c-19.213 0-34.788 15.575-34.788 34.788s15.575 34.788 34.788 34.788h367.114c19.213 0 34.788-15.575 34.788-34.788s-15.575-34.788-34.788-34.788h45.296c19.213 0 34.788-15.575 34.788-34.788s-15.575-34.788-34.788-34.788z" opacity="1" data-original="url(#a)"></path><path fill="#e8f1f8" d="M346.642 78.439a23.038 23.038 0 0 0-16.358 6.762c-4.194 4.193-6.762 9.935-6.762 16.319v285.94c0 3.173-.642 6.233-1.813 8.991a21.571 21.571 0 0 1-2.116 3.892 15.577 15.577 0 0 1-1.322 1.775 15.25 15.25 0 0 1-1.473 1.662h-.038a23.03 23.03 0 0 1-16.358 6.762H101.54V101.52c0-6.384 2.569-12.127 6.762-16.319a23.03 23.03 0 0 1 16.358-6.762z" opacity="1" data-original="#e8f1f8"></path><path d="M346.642 78.439a23.047 23.047 0 0 0-16.358 6.762c-4.194 4.193-6.762 9.935-6.762 16.319v285.94c0 3.175-.642 6.235-1.813 8.993a21.554 21.554 0 0 1-2.116 3.89 15.678 15.678 0 0 1-1.322 1.776 15.645 15.645 0 0 1-1.473 1.662h-.038a23.04 23.04 0 0 1-16.358 6.762H101.54v-32.565c102.944-19.267 180.88-109.631 180.88-218.167V78.439z" opacity="1" fill="#00000012" data-original="#00000012"></path><path fill="#acbadf" d="M392.844 340.88h-69.322V101.52c0-6.384 2.569-12.127 6.762-16.319a23.03 23.03 0 0 1 16.358-6.762c12.731 0 23.082 10.35 23.082 23.082V317.76c0 12.77 10.352 23.12 23.12 23.12z" opacity="1" data-original="#acbadf"></path><path fill="#e8f1f8" d="M369.733 175.098v142.668c0 12.761 10.344 23.106 23.105 23.106s23.105-10.345 23.105-23.106V175.098z" opacity="1" data-original="#e8f1f8"></path><path fill="#fdcf17" d="M224.091 153.185c0 25.998-21.06 47.059-47.045 47.059s-47.059-21.061-47.059-47.059c0-25.985 21.074-47.045 47.059-47.045s47.045 21.06 47.045 47.045z" opacity="1" data-original="#fdcf17"></path><path d="M165.233 170.94h14.738a8.874 8.874 0 1 0 0-17.748h-5.864a8.874 8.874 0 1 1 0-17.748h14.738M177.037 178.316v-7.376M177.037 135.444v-7.376" style="stroke-width:1.5;stroke-linecap:round;stroke-linejoin:round;stroke-miterlimit:10" fill="none" stroke="#f78721" stroke-width="1.5" stroke-linecap="round" stroke-linejoin="round" stroke-miterlimit="1" data-original="#f78721"></path><path fill="#f14f4a" d="M158.03 317.518v25.553a4.919 4.919 0 0 1-4.919 4.919h-18.205a4.919 4.919 0 0 1-4.919-4.919v-25.553a4.919 4.919 0 0 1 4.919-4.919h18.205a4.919 4.919 0 0 1 4.919 4.919z" opacity="1" data-original="#f14f4a"></path><path d="M158.026 317.51v25.561a4.912 4.912 0 0 1-4.919 4.919h-18.201a4.912 4.912 0 0 1-4.919-4.919v-.459c12.561-.23 22.678-10.495 22.678-23.121v-6.901h.443a4.923 4.923 0 0 1 4.918 4.92z" opacity="1" fill="#00000012" data-original="#00000012"></path><path fill="#f14f4a" d="M197.001 275.41v67.66a4.919 4.919 0 0 1-4.919 4.919h-18.205a4.919 4.919 0 0 1-4.919-4.919v-67.66a4.919 4.919 0 0 1 4.919-4.919h18.205a4.92 4.92 0 0 1 4.919 4.919z" opacity="1" data-original="#f14f4a"></path><path d="M196.997 275.402v67.668a4.912 4.912 0 0 1-4.919 4.919h-18.201a4.912 4.912 0 0 1-4.919-4.919v-.459c12.561-.23 22.678-10.495 22.678-23.121v-49.008h.443a4.924 4.924 0 0 1 4.918 4.92z" opacity="1" fill="#00000012" data-original="#00000012"></path><path fill="#f14f4a" d="M235.971 294.173v48.897a4.919 4.919 0 0 1-4.919 4.919h-18.205a4.919 4.919 0 0 1-4.919-4.919v-48.897a4.919 4.919 0 0 1 4.919-4.919h18.205a4.92 4.92 0 0 1 4.919 4.919z" opacity="1" data-original="#f14f4a"></path><path d="M235.968 294.165v48.906a4.912 4.912 0 0 1-4.919 4.919h-18.201a4.912 4.912 0 0 1-4.919-4.919v-.459c12.561-.23 22.678-10.495 22.678-23.121v-30.245h.443a4.922 4.922 0 0 1 4.918 4.919z" opacity="1" fill="#00000012" data-original="#00000012"></path><path fill="#f14f4a" d="M274.942 252.066v91.005a4.919 4.919 0 0 1-4.919 4.919h-18.205a4.919 4.919 0 0 1-4.919-4.919v-91.005a4.919 4.919 0 0 1 4.919-4.919h18.205a4.919 4.919 0 0 1 4.919 4.919z" opacity="1" data-original="#f14f4a"></path><path d="M274.939 252.058v91.013a4.912 4.912 0 0 1-4.919 4.919h-18.201a4.912 4.912 0 0 1-4.919-4.919v-.459c12.561-.23 22.678-10.495 22.678-23.121v-72.352h.443a4.923 4.923 0 0 1 4.918 4.919z" opacity="1" fill="#00000012" data-original="#00000012"></path><path fill="#acbadf" d="M300.402 410.542h-198.9c-12.731 0-23.044-10.35-23.044-23.082v-17.378h198.9v17.378c0 12.732 10.313 23.082 23.044 23.082z" opacity="1" data-original="#acbadf"></path><path fill="#475da9" d="M433.567 260.98v158.728c0 7.644-6.197 13.841-13.841 13.841H305.021c-7.644 0-13.841-6.197-13.841-13.841V260.98c0-7.644 6.197-13.841 13.841-13.841h114.705c7.644 0 13.841 6.197 13.841 13.841z" opacity="1" data-original="#475da9"></path><path d="M433.569 260.982v158.724c0 7.647-6.194 13.841-13.841 13.841H305.019c-7.647 0-13.841-6.194-13.841-13.841v-5.346h38.357c46.87 0 84.846-37.977 84.846-84.829v-82.39h5.346c7.648 0 13.842 6.194 13.842 13.841z" opacity="1" fill="#00000012" data-original="#00000012"></path><path fill="#acbadf" d="M414.536 307.051v-36.416a5.19 5.19 0 0 0-5.19-5.19h-93.942a5.19 5.19 0 0 0-5.19 5.19v36.416a5.19 5.19 0 0 0 5.19 5.19h93.942a5.19 5.19 0 0 0 5.19-5.19z" opacity="1" data-original="#acbadf"></path><path fill="#f78721" d="M336.91 333.153v8.459a6.746 6.746 0 0 1-6.746 6.746h-13.207a6.746 6.746 0 0 1-6.746-6.746v-8.459a6.746 6.746 0 0 1 6.746-6.746h13.207a6.746 6.746 0 0 1 6.746 6.746z" opacity="1" data-original="#f78721"></path><g fill="#e8f1f8"><path d="M375.723 333.153v8.459a6.746 6.746 0 0 1-6.746 6.746H355.77a6.746 6.746 0 0 1-6.746-6.746v-8.459a6.746 6.746 0 0 1 6.746-6.746h13.207a6.747 6.747 0 0 1 6.746 6.746zM414.536 333.153v8.459a6.746 6.746 0 0 1-6.746 6.746h-13.207a6.746 6.746 0 0 1-6.746-6.746v-8.459a6.746 6.746 0 0 1 6.746-6.746h13.207a6.747 6.747 0 0 1 6.746 6.746zM336.91 366.593v8.459a6.746 6.746 0 0 1-6.746 6.746h-13.207a6.746 6.746 0 0 1-6.746-6.746v-8.459a6.746 6.746 0 0 1 6.746-6.746h13.207a6.746 6.746 0 0 1 6.746 6.746zM375.723 366.593v8.459a6.746 6.746 0 0 1-6.746 6.746H355.77a6.746 6.746 0 0 1-6.746-6.746v-8.459a6.746 6.746 0 0 1 6.746-6.746h13.207a6.746 6.746 0 0 1 6.746 6.746zM336.91 400.033v8.459a6.746 6.746 0 0 1-6.746 6.746h-13.207a6.746 6.746 0 0 1-6.746-6.746v-8.459a6.746 6.746 0 0 1 6.746-6.746h13.207a6.746 6.746 0 0 1 6.746 6.746zM375.723 400.033v8.459a6.746 6.746 0 0 1-6.746 6.746H355.77a6.746 6.746 0 0 1-6.746-6.746v-8.459a6.746 6.746 0 0 1 6.746-6.746h13.207a6.746 6.746 0 0 1 6.746 6.746z" fill="#e8f1f8" opacity="1" data-original="#e8f1f8"></path></g><path fill="#fdcf17" d="M414.53 366.585v41.896c0 3.74-3.022 6.762-6.725 6.762h-13.222a6.755 6.755 0 0 1-6.762-6.762v-41.896c0-3.702 3.022-6.724 6.762-6.724h13.222c3.703.001 6.725 3.022 6.725 6.724z" opacity="1" data-original="#fdcf17"></path><path d="M177.045 203.076c27.503 0 49.878-22.379 49.878-49.89 0-27.503-22.375-49.878-49.878-49.878-27.511 0-49.893 22.375-49.893 49.878 0 27.511 22.382 49.89 49.893 49.89zm0-94.101c24.378 0 44.212 19.833 44.212 44.212 0 24.386-19.833 44.223-44.212 44.223-24.386 0-44.227-19.837-44.227-44.223 0-24.379 19.841-44.212 44.227-44.212z" fill="#000000" opacity="1" data-original="#000000"></path><path d="M179.97 168.106h-14.739a2.834 2.834 0 0 0 0 5.666h8.972v4.545a2.834 2.834 0 0 0 5.666 0v-4.545h.1c6.456 0 11.706-5.25 11.706-11.706s-5.25-11.71-11.706-11.71h-5.862c-3.331 0-6.043-2.708-6.043-6.039s2.712-6.039 6.043-6.039h14.735a2.834 2.834 0 0 0 0-5.666h-8.972v-4.545a2.834 2.834 0 0 0-5.666 0v4.545h-.096c-6.456 0-11.71 5.25-11.71 11.706s5.253 11.706 11.71 11.706h5.862c3.331 0 6.039 2.712 6.039 6.043s-2.707 6.039-6.039 6.039zM153.109 309.765h-18.203c-4.276 0-7.755 3.479-7.755 7.751v25.555c0 4.272 3.479 7.751 7.755 7.751h18.203c4.276 0 7.755-3.479 7.755-7.751v-25.555c0-4.272-3.479-7.751-7.755-7.751zm2.088 33.307a2.087 2.087 0 0 1-2.088 2.084h-18.203a2.087 2.087 0 0 1-2.088-2.084v-25.555c0-1.151.937-2.084 2.088-2.084h18.203c1.151 0 2.088.933 2.088 2.084zM192.082 267.656h-18.206c-4.272 0-7.751 3.479-7.751 7.755v67.661c0 4.272 3.479 7.751 7.751 7.751h18.206c4.272 0 7.751-3.479 7.751-7.751v-67.661c0-4.276-3.479-7.755-7.751-7.755zm2.085 75.416a2.084 2.084 0 0 1-2.084 2.084h-18.206a2.084 2.084 0 0 1-2.084-2.084v-67.661c0-1.151.933-2.088 2.084-2.088h18.206c1.151 0 2.084.937 2.084 2.088zM231.052 286.42h-18.203c-4.276 0-7.755 3.479-7.755 7.755v48.897c0 4.272 3.479 7.751 7.755 7.751h18.203c4.276 0 7.755-3.479 7.755-7.751v-48.897c-.001-4.276-3.48-7.755-7.755-7.755zm2.088 56.652a2.087 2.087 0 0 1-2.088 2.084h-18.203a2.087 2.087 0 0 1-2.088-2.084v-48.897a2.09 2.09 0 0 1 2.088-2.088h18.203a2.09 2.09 0 0 1 2.088 2.088zM270.025 244.314h-18.206c-4.272 0-7.751 3.479-7.751 7.751v91.006c0 4.272 3.479 7.751 7.751 7.751h18.206c4.272 0 7.751-3.479 7.751-7.751v-91.006c0-4.272-3.479-7.751-7.751-7.751zm2.084 98.758a2.084 2.084 0 0 1-2.084 2.084h-18.206a2.084 2.084 0 0 1-2.084-2.084v-91.006c0-1.151.933-2.084 2.084-2.084h18.206c1.151 0 2.084.933 2.084 2.084zM197 218.962h-67.015a2.834 2.834 0 0 0 0 5.666H197a2.834 2.834 0 0 0 0-5.666zM175.197 249.981a2.834 2.834 0 0 0 0-5.666h-45.212a2.834 2.834 0 0 0 0 5.666z" fill="#000000" opacity="1" data-original="#000000"></path><path d="M419.726 244.307h-.941v-69.221a2.834 2.834 0 0 0-2.833-2.833h-43.408v-70.719c0-14.292-11.625-25.917-25.913-25.917H124.647c-14.482 0-25.954 11.72-25.954 25.917v265.728H78.446a2.834 2.834 0 0 0-2.833 2.833v17.376c0 14.292 11.606 25.917 25.913 25.917h186.819v6.32c0 9.194 7.482 16.675 16.675 16.675h114.706c9.194 0 16.675-7.482 16.675-16.675V260.979c.001-9.194-7.481-16.672-16.675-16.672zm-47.144-66.388h40.537v66.388h-40.537zm-25.95-96.636c11.164 0 20.247 9.083 20.247 20.25v142.773h-40.534V101.534c0-11.141 8.997-20.251 20.287-20.251zM101.526 407.722h-.037c-11.145 0-20.21-9.083-20.21-20.25v-14.543H274.51v14.543a25.949 25.949 0 0 0 9.74 20.25zm186.819-146.743V403.66c-5.047-3.778-8.168-9.721-8.168-16.188v-17.376a2.834 2.834 0 0 0-2.833-2.833H104.359V101.534c0-11.163 9.028-20.25 20.287-20.25h205.771c-5.809 4.534-9.74 11.979-9.74 20.25v142.773H305.02c-9.193 0-16.675 7.478-16.675 16.672zm142.39 158.729c0 6.069-4.94 11.009-11.009 11.009H305.021c-6.069 0-11.009-4.94-11.009-11.009V260.979c0-6.069 4.94-11.005 11.009-11.005h114.706c6.069 0 11.009 4.936 11.009 11.005v158.729z" fill="#000000" opacity="1" data-original="#000000"></path><path d="M409.345 262.613h-93.943c-4.423 0-8.024 3.601-8.024 8.024v36.413c0 4.423 3.601 8.024 8.024 8.024h93.943c4.423 0 8.024-3.601 8.024-8.024v-36.413c0-4.423-3.601-8.024-8.024-8.024zm2.357 44.437a2.361 2.361 0 0 1-2.357 2.357h-93.943a2.361 2.361 0 0 1-2.357-2.357v-36.413a2.361 2.361 0 0 1 2.357-2.357h93.943a2.361 2.361 0 0 1 2.357 2.357zM330.163 323.574h-13.207c-5.279 0-9.577 4.298-9.577 9.581v8.459c0 5.279 4.298 9.577 9.577 9.577h13.207c5.283 0 9.581-4.298 9.581-9.577v-8.459c0-5.283-4.298-9.581-9.581-9.581zm3.914 18.04a3.918 3.918 0 0 1-3.914 3.911h-13.207a3.917 3.917 0 0 1-3.911-3.911v-8.459a3.918 3.918 0 0 1 3.911-3.914h13.207a3.919 3.919 0 0 1 3.914 3.914zM372.673 324.319c-.017-.007-.033-.009-.05-.015-.006-.004-.014-.004-.019-.007-.025-.007-.048-.013-.072-.022a9.497 9.497 0 0 0-3.555-.701H355.77c-5.283 0-9.581 4.298-9.581 9.581v8.459c0 5.279 4.298 9.577 9.581 9.577h13.207c5.279 0 9.577-4.298 9.577-9.577v-8.459c.001-3.973-2.431-7.386-5.881-8.836zm.215 8.887c0 .007-.004.011-.004.018v.037c0 .007.004.011.004.018v8.334a3.917 3.917 0 0 1-3.911 3.911H355.77a3.918 3.918 0 0 1-3.914-3.911v-8.459a3.919 3.919 0 0 1 3.914-3.914h13.207a3.918 3.918 0 0 1 3.911 3.914zM407.788 323.574h-13.204c-5.283 0-9.581 4.298-9.581 9.581v8.459c0 5.279 4.298 9.577 9.581 9.577h13.204c5.283 0 9.581-4.298 9.581-9.577v-8.459c0-5.283-4.298-9.581-9.581-9.581zm3.914 18.04a3.918 3.918 0 0 1-3.914 3.911h-13.204a3.918 3.918 0 0 1-3.914-3.911v-8.459a3.919 3.919 0 0 1 3.914-3.914h13.204a3.919 3.919 0 0 1 3.914 3.914zM330.163 357.013h-13.207c-5.279 0-9.577 4.298-9.577 9.581v8.459c0 5.279 4.298 9.577 9.577 9.577h13.207c5.283 0 9.581-4.298 9.581-9.577v-8.459c0-5.283-4.298-9.581-9.581-9.581zm3.914 18.04a3.918 3.918 0 0 1-3.914 3.911h-13.207a3.917 3.917 0 0 1-3.911-3.911v-8.459a3.918 3.918 0 0 1 3.911-3.914h13.207a3.919 3.919 0 0 1 3.914 3.914zM368.977 357.013H355.77c-5.283 0-9.581 4.298-9.581 9.581v8.459c0 5.279 4.298 9.577 9.581 9.577h13.207c5.279 0 9.577-4.298 9.577-9.577v-8.459c.001-5.283-4.297-9.581-9.577-9.581zm3.911 18.04a3.917 3.917 0 0 1-3.911 3.911H355.77a3.918 3.918 0 0 1-3.914-3.911v-8.459a3.919 3.919 0 0 1 3.914-3.914h13.207a3.918 3.918 0 0 1 3.911 3.914zM330.163 390.452h-13.207c-5.279 0-9.577 4.298-9.577 9.581v8.459c0 5.283 4.298 9.581 9.577 9.581h13.207c5.283 0 9.581-4.298 9.581-9.581v-8.459c0-5.283-4.298-9.581-9.581-9.581zm3.914 18.041a3.919 3.919 0 0 1-3.914 3.914h-13.207a3.918 3.918 0 0 1-3.911-3.914v-8.459a3.918 3.918 0 0 1 3.911-3.914h13.207a3.919 3.919 0 0 1 3.914 3.914zM368.977 390.452H355.77c-5.283 0-9.581 4.298-9.581 9.581v8.459c0 5.283 4.298 9.581 9.581 9.581h13.207c5.279 0 9.577-4.298 9.577-9.581v-8.459c.001-5.283-4.297-9.581-9.577-9.581zm3.911 18.041a3.918 3.918 0 0 1-3.911 3.914H355.77a3.919 3.919 0 0 1-3.914-3.914v-8.459a3.919 3.919 0 0 1 3.914-3.914h13.207a3.918 3.918 0 0 1 3.911 3.914zM407.807 357.028h-13.222c-5.29 0-9.596 4.287-9.596 9.559v41.895c0 5.29 4.305 9.596 9.596 9.596h13.222c5.272 0 9.559-4.305 9.559-9.596v-41.895c-.001-5.272-4.288-9.559-9.559-9.559zm3.892 51.454c0 2.166-1.745 3.929-3.892 3.929h-13.222a3.934 3.934 0 0 1-3.929-3.929v-41.895c0-2.147 1.763-3.892 3.929-3.892h13.222a3.895 3.895 0 0 1 3.892 3.892z" fill="#000000" opacity="1" data-original="#000000"></path><path d="M391.958 271.795c-6.165 0-11.182 5.017-11.182 11.182v11.732c0 6.165 5.017 11.182 11.182 11.182s11.182-5.017 11.182-11.182v-11.732c0-6.164-5.018-11.182-11.182-11.182zm5.515 22.914c0 3.04-2.475 5.515-5.515 5.515s-5.515-2.475-5.515-5.515v-11.732c0-3.04 2.475-5.515 5.515-5.515s5.515 2.475 5.515 5.515z" fill="#000000" opacity="1" data-original="#000000"></path></g></svg>