<svg xmlns="http://www.w3.org/2000/svg" version="1.1" xmlns:xlink="http://www.w3.org/1999/xlink" width="512" height="512" x="0" y="0" viewBox="0 0 682.667 682.667" style="enable-background:new 0 0 512 512" xml:space="preserve" class=""><g><defs><clipPath id="a" clipPathUnits="userSpaceOnUse"><path d="M0 512h512V0H0Z" fill="#000000" opacity="1" data-original="#000000"></path></clipPath></defs><g clip-path="url(#a)" transform="matrix(1.33333 0 0 -1.33333 0 682.667)"><path d="m0 0-228.372-228.372a5.664 5.664 0 0 0-8.012 0l-127.854 127.853a5.666 5.666 0 0 0 0 8.012l228.372 228.372a5.664 5.664 0 0 0 8.012 0L0 8.011A5.665 5.665 0 0 0 0 0" style="fill-opacity:1;fill-rule:nonzero;stroke:none" transform="translate(502.84 332.56)" fill="#5cc45c" data-original="#5cc45c" class=""></path><path d="m0 0-34.44 34.44-236.384-236.383 34.44-34.441a5.666 5.666 0 0 1 8.012 0L0-8.011A5.665 5.665 0 0 1 0 0" style="fill-opacity:1;fill-rule:nonzero;stroke:none" transform="translate(502.84 340.571)" fill="#4ead4e" data-original="#4ead4e"></path><path d="M0 0c4.983 9.219 4.983 20.437.001 29.656-.669 1.238-.477 2.761.519 3.756l164.199 164.199c.995.994 2.518 1.188 3.756.519 9.216-4.984 20.435-4.984 29.655 0 1.238.669 2.762.476 3.756-.519l63.681-63.68c.995-.995 1.188-2.519.519-3.756-4.984-9.22-4.983-20.437 0-29.656.669-1.238.476-2.761-.519-3.756l-164.2-164.201c-.995-.994-2.518-1.187-3.756-.518-9.219 4.983-20.436 4.982-29.655.001-1.237-.669-2.761-.477-3.756.518L.52-3.755C-.476-2.761-.669-1.237 0 0" style="fill-opacity:1;fill-rule:nonzero;stroke:none" transform="translate(187.679 221.22)" fill="#a0e557" data-original="#a0e557"></path><path d="M0 0c-4.983 9.22-4.984 20.437 0 29.656.669 1.238.476 2.761-.519 3.755l-36.668 36.668c-6.586-10.229-6.586-23.495 0-33.725l-167.642-167.642c-10.231 6.586-23.496 6.586-33.724 0l36.668-36.667c.994-.995 2.518-1.188 3.755-.519 9.219 4.982 20.436 4.983 29.655-.001 1.238-.669 2.761-.475 3.756.519L-.52-3.756C.476-2.761.669-1.237 0 0" style="fill-opacity:1;fill-rule:nonzero;stroke:none" transform="translate(453.765 321.738)" fill="#93cc4a" data-original="#93cc4a" class=""></path><path d="M0 0c18.188-18.188 18.188-47.678 0-65.866-18.187-18.189-47.677-18.189-65.865 0-18.189 18.188-18.189 47.678 0 65.866C-47.677 18.188-18.187 18.188 0 0" style="fill-opacity:1;fill-rule:nonzero;stroke:none" transform="translate(353.654 319.24)" fill="#f3e8d7" data-original="#f3e8d7"></path><path d="m0 0 70.268 70.269c8.097 8.097 11.541 17.783 3.443 25.88-12.763 15.849-59.353 3.14-81.452-18.961a143941.626 143941.626 0 0 1-29.59-29.595c-3.281-3.283-7.731-5.128-12.429-5.128h-.242c-7.753 0-16.834 7.508-18.833 14.998l-.005 64.931 11.595 11.594 12.739 12.74 50.598 50.596c-20.816 2.333-41.516 3.595-49.545 4.557-8.927 1.069-16.541-2.931-23.469-8.661l-64.773-51.102a57.856 57.856 0 0 1-18.889-29.19c-7.071-25.615-21.967-70.924-31.42-88.943l-47.226-47.226 81.761-81.762 22.74 22.739a35.843 35.843 0 0 0 15.364 9.081l47.491 15.992A82.273 82.273 0 0 1-24.038-30.4z" style="fill-opacity:1;fill-rule:nonzero;stroke:none" transform="translate(265.493 175.71)" fill="#fcd7c3" data-original="#fcd7c3"></path><path d="m0 0 24.037 30.4 70.269 70.269c8.097 8.098 11.541 17.783 3.443 25.881-4.691 5.826-13.954 7.792-24.891 6.851-16.018-1.378-30.946-8.7-42.315-20.069l-44.718-44.719-24.038-30.4a82.264 82.264 0 0 0-37.836-26.79L-123.54-4.569a35.847 35.847 0 0 1-15.364-9.081l-22.74-22.74 38.213-38.213 22.74 22.74a35.853 35.853 0 0 0 15.364 9.081l47.491 15.992A82.264 82.264 0 0 1 0 0" style="fill-opacity:1;fill-rule:nonzero;stroke:none" transform="translate(241.455 145.31)" fill="#ffcdac" data-original="#ffcdac"></path><path d="m0 0-94.633 94.633a8.98 8.98 0 0 0 0 12.699l16.654 16.653c3.506 3.507 9.192 3.507 12.7 0l94.632-94.632a8.982 8.982 0 0 0 0-12.7L12.7 0A8.98 8.98 0 0 0 0 0" style="fill-opacity:1;fill-rule:nonzero;stroke:none" transform="translate(104.763 44.545)" fill="#464c50" data-original="#464c50"></path><path d="m0 0-32.096 32.097-29.352-29.353 32.095-32.097a8.983 8.983 0 0 1 12.701 0L0-12.699A8.98 8.98 0 0 1 0 0" style="fill-opacity:1;fill-rule:nonzero;stroke:none" transform="translate(134.115 73.897)" fill="#33393a" data-original="#33393a"></path><path d="M0 0c-9.326 9.326-24.446 9.326-33.772 0l-10.61-10.609c-4.801-4.801-4.801-12.585 0-17.386l10.677-10.676L2.482-2.482z" style="fill-opacity:1;fill-rule:nonzero;stroke:none" transform="translate(332.983 248.167)" fill="#efefef" data-original="#efefef" class=""></path><path d="m0 0-94.633 94.633a8.98 8.98 0 0 0 0 12.699l16.654 16.653c3.506 3.507 9.192 3.507 12.7 0l94.632-94.632a8.982 8.982 0 0 0 0-12.7L12.7 0A8.98 8.98 0 0 0 0 0Z" style="stroke-width:15;stroke-linecap:round;stroke-linejoin:round;stroke-miterlimit:10;stroke-dasharray:none;stroke-opacity:1" transform="translate(104.763 44.545)" fill="none" stroke="#000000" stroke-width="15" stroke-linecap="round" stroke-linejoin="round" stroke-miterlimit="10" stroke-dasharray="none" stroke-opacity="" data-original="#000000"></path><path d="m0 0 122.204 122.203c.994.995 1.188 2.519.519 3.756-4.985 9.22-4.985 20.437 0 29.656.669 1.238.475 2.761-.519 3.756l-63.682 63.681c-.995.995-2.517 1.187-3.755.518-9.22-4.983-20.439-4.983-29.656 0-1.237.669-2.76.476-3.756-.518L-134.386 67.31" style="stroke-width:15;stroke-linecap:round;stroke-linejoin:round;stroke-miterlimit:10;stroke-dasharray:none;stroke-opacity:1" transform="translate(331.042 195.78)" fill="none" stroke="#000000" stroke-width="15" stroke-linecap="round" stroke-linejoin="round" stroke-miterlimit="10" stroke-dasharray="none" stroke-opacity="" data-original="#000000"></path><path d="m0 0 2.08-2.08c.995-.995 2.519-1.188 3.756-.519 9.219 4.982 20.435 4.983 29.655-.001 1.238-.669 2.761-.475 3.756.519l17.199 17.2" style="stroke-width:15;stroke-linecap:round;stroke-linejoin:round;stroke-miterlimit:10;stroke-dasharray:none;stroke-opacity:1" transform="translate(249.799 155.863)" fill="none" stroke="#000000" stroke-width="15" stroke-linecap="round" stroke-linejoin="round" stroke-miterlimit="10" stroke-dasharray="none" stroke-opacity="" data-original="#000000"></path><path d="m0 0-5.184-5.185a46.345 46.345 0 0 1 23.078 12.58c18.188 18.188 18.188 47.677 0 65.866-18.188 18.188-47.677 18.188-65.866 0-13.998-13.998-17.211-34.684-9.663-51.766" style="stroke-width:15;stroke-linecap:round;stroke-linejoin:round;stroke-miterlimit:10;stroke-dasharray:none;stroke-opacity:1" transform="translate(335.76 245.98)" fill="none" stroke="#000000" stroke-width="15" stroke-linecap="round" stroke-linejoin="round" stroke-miterlimit="10" stroke-dasharray="none" stroke-opacity="" data-original="#000000"></path><path d="m0 0 32.688-32.688a5.665 5.665 0 0 1 8.011 0l228.372 228.373a5.664 5.664 0 0 1 0 8.01L141.217 331.55a5.664 5.664 0 0 1-8.012 0l-70.311-70.312" style="stroke-width:15;stroke-linecap:round;stroke-linejoin:round;stroke-miterlimit:10;stroke-dasharray:none;stroke-opacity:1" transform="translate(233.77 136.876)" fill="none" stroke="#000000" stroke-width="15" stroke-linecap="round" stroke-linejoin="round" stroke-miterlimit="10" stroke-dasharray="none" stroke-opacity="" data-original="#000000"></path><path d="M0 0c-9.326 9.326-24.446 9.326-33.772 0l-10.61-10.609c-4.801-4.801-4.801-12.585 0-17.386l10.677-10.676L2.482-2.482z" style="stroke-width:15;stroke-linecap:round;stroke-linejoin:round;stroke-miterlimit:10;stroke-dasharray:none;stroke-opacity:1" transform="translate(332.983 248.167)" fill="none" stroke="#000000" stroke-width="15" stroke-linecap="round" stroke-linejoin="round" stroke-miterlimit="10" stroke-dasharray="none" stroke-opacity="" data-original="#000000"></path><path d="m0 0 13.099 13.099a35.863 35.863 0 0 0 15.364 9.081l47.491 15.992a82.264 82.264 0 0 1 37.836 26.79l24.038 30.4 70.268 70.269c8.097 8.098 11.541 17.783 3.443 25.881-12.763 15.848-59.352 3.139-81.452-18.961a169807.35 169807.35 0 0 1-29.59-29.596c-3.281-3.283-7.73-5.128-12.429-5.128h-.242c-7.753 0-16.834 7.508-18.833 14.998l-.005 64.931 11.595 11.595 12.739 12.739 50.598 50.597c-20.816 2.333-41.516 3.594-49.545 4.556-8.927 1.069-16.541-2.931-23.469-8.661L6.133 237.48a57.852 57.852 0 0 1-18.889-29.19c-7.071-25.614-21.967-70.924-31.42-88.941l-37.587-37.587" style="stroke-width:15;stroke-linecap:round;stroke-linejoin:round;stroke-miterlimit:10;stroke-dasharray:none;stroke-opacity:1" transform="translate(127.665 80.349)" fill="none" stroke="#000000" stroke-width="15" stroke-linecap="round" stroke-linejoin="round" stroke-miterlimit="10" stroke-dasharray="none" stroke-opacity="" data-original="#000000"></path></g></g></svg>