<svg xmlns="http://www.w3.org/2000/svg" version="1.1" xmlns:xlink="http://www.w3.org/1999/xlink" width="512" height="512" x="0" y="0" viewBox="0 0 682.667 682.667" style="enable-background:new 0 0 512 512" xml:space="preserve" class=""><g transform="matrix(1,0,0,1,0,0)"><defs><clipPath id="a" clipPathUnits="userSpaceOnUse"><path d="M0 512h512V0H0Z" fill="#000000" opacity="1" data-original="#000000" class=""></path></clipPath></defs><g clip-path="url(#a)" transform="matrix(1.33333 0 0 -1.33333 0 682.667)"><path d="M0 0c0-141.385-114.615-256-256-256S-512-141.385-512 0s114.615 256 256 256S0 141.385 0 0" style="fill-opacity:1;fill-rule:nonzero;stroke:none" transform="translate(512 256)" fill="#fed402" data-original="#fed402" class=""></path><path d="M0 0h-237.985c-17.805 0-32.239 14.434-32.239 32.239 0 17.804 14.434 32.239 32.239 32.239H0c17.805 0 32.238-14.435 32.238-32.239C32.238 14.434 17.805 0 0 0" style="fill-opacity:1;fill-rule:nonzero;stroke:none" transform="translate(351.986 131.47)" fill="#0091c8" data-original="#0091c8" class=""></path><path d="m0 0 16.591 16.591L33.182 0l16.59 16.591.91-.908v79.741c0 21.901-17.755 39.656-39.657 39.656h-112.989V-2.752h66.03l19.343 19.343z" style="fill-opacity:1;fill-rule:nonzero;stroke:none" transform="translate(375.509 328.16)" fill="#afe6ff" data-original="#afe6ff" class=""></path><path d="m0 0 19.343 19.343 10.23-10.23v89.063c0 18.034 12.042 33.246 28.521 38.059a39.617 39.617 0 0 1-11.135 1.597H-66.03V0Z" style="fill-opacity:1;fill-rule:nonzero;stroke:none" transform="translate(339.575 325.407)" fill="#94deff" data-original="#94deff" class=""></path><path d="M0 0h-223.483c-5.77 0-10.447 4.677-10.447 10.446s4.677 10.446 10.447 10.446H0c5.77 0 10.446-4.677 10.446-10.446S5.77 0 0 0" style="fill-opacity:1;fill-rule:nonzero;stroke:none" transform="translate(344.57 152.47)" fill="#0073aa" data-original="#0073aa" class=""></path><path d="M0 0h-223.483c-21.902 0-39.656-17.754-39.656-39.656v-260.667h223.484v260.667C-39.655-17.754-21.901 0 0 0" style="fill-opacity:1;fill-rule:nonzero;stroke:none" transform="translate(384.225 463.239)" fill="#ffffff" data-original="#ffffff" class=""></path><path d="M0 0h-31.953c-21.901 0-39.656-17.754-39.656-39.656v-260.667h31.953v260.667C-39.656-17.754-21.901 0 0 0" style="fill-opacity:1;fill-rule:nonzero;stroke:none" transform="translate(192.694 463.239)" fill="#e1faff" data-original="#e1faff" class=""></path><path d="M244.067 374.09h-91.029v20.938h91.029z" style="fill-opacity:1;fill-rule:nonzero;stroke:none" fill="#6ee1ff" data-original="#6ee1ff" class=""></path><path d="M313.305 374.09h-31.974v20.938h31.974z" style="fill-opacity:1;fill-rule:nonzero;stroke:none" fill="#fe646f" data-original="#fe646f" class=""></path><path d="M244.067 316.948h-91.029v20.938h91.029z" style="fill-opacity:1;fill-rule:nonzero;stroke:none" fill="#6ee1ff" data-original="#6ee1ff" class=""></path><path d="M313.305 316.948h-31.974v20.938h31.974z" style="fill-opacity:1;fill-rule:nonzero;stroke:none" fill="#fe646f" data-original="#fe646f" class=""></path><path d="M244.067 258.062h-91.029V279h91.029z" style="fill-opacity:1;fill-rule:nonzero;stroke:none" fill="#6ee1ff" data-original="#6ee1ff" class=""></path><path d="M313.305 258.062h-31.974V279h31.974z" style="fill-opacity:1;fill-rule:nonzero;stroke:none" fill="#fe646f" data-original="#fe646f" class=""></path><path d="M442.008 74.031H173.526v129.862h268.482z" style="fill-opacity:1;fill-rule:nonzero;stroke:none" fill="#5d913f" data-original="#5d913f" class=""></path><path d="M442.008 203.893H173.526V74.031h268.482ZM426.334 89.704H189.199v98.515h237.135z" style="fill-opacity:1;fill-rule:nonzero;stroke:none" fill="#3d772a" data-original="#3d772a" class=""></path><path d="M0 0a26.303 26.303 0 0 1 15.125-4.76c14.601 0 26.436 11.836 26.436 26.436a26.3 26.3 0 0 1-4.831 15.225H0Z" style="fill-opacity:1;fill-rule:nonzero;stroke:none" transform="translate(173.526 166.992)" fill="#3d772a" data-original="#3d772a" class=""></path><path d="M0 0a26.303 26.303 0 0 1-15.125-4.76v-36.504h37.013a26.314 26.314 0 0 1 4.548 14.827C26.436-11.836 14.601 0 0 0" style="fill-opacity:1;fill-rule:nonzero;stroke:none" transform="translate(188.65 115.294)" fill="#3d772a" data-original="#3d772a" class=""></path><path d="M0 0c0-14.601 11.836-26.437 26.437-26.437 6.947 0 13.264 2.685 17.983 7.067v34.595H4.83A26.312 26.312 0 0 1 0 0" style="fill-opacity:1;fill-rule:nonzero;stroke:none" transform="translate(397.588 188.668)" fill="#3d772a" data-original="#3d772a" class=""></path><path d="M0 0c-4.719 4.383-11.036 7.067-17.983 7.067-14.601 0-26.437-11.836-26.437-26.437a26.314 26.314 0 0 1 4.548-14.827H0Z" style="fill-opacity:1;fill-rule:nonzero;stroke:none" transform="translate(442.008 108.228)" fill="#3d772a" data-original="#3d772a" class=""></path><path d="M0 0c0-24.374-19.759-44.132-44.132-44.132-24.373 0-44.131 19.758-44.131 44.132 0 24.373 19.758 44.131 44.131 44.131S0 24.373 0 0" style="fill-opacity:1;fill-rule:nonzero;stroke:none" transform="translate(351.898 138.962)" fill="#3d772a" data-original="#3d772a" class=""></path><path d="M251.128 130.602H200.42v16.719h50.708zM415.178 130.602H364.47v16.719h50.708z" style="fill-opacity:1;fill-rule:nonzero;stroke:none" fill="#6eaa50" data-original="#6eaa50"></path><path d="M0 0v-11.112c2.423.784 4.061 2.565 4.061 5.913C4.061-2.493 2.423-.997 0 0m-5.343 10.33v10.257c-2.279-.784-3.703-2.421-3.703-5.271 0-2.565 1.424-3.919 3.703-4.986m0-28.851c-4.7.144-8.548.999-12.251 2.708v10.614l7.052.498v-4.132c0-1.282.214-1.78 1.424-2.208.997-.356 2.351-.569 3.775-.569V1.711c-6.553 1.781-12.465 4.559-12.465 12.821 0 7.124 4.915 11.896 12.465 12.965v6.553H0v-6.411c3.847-.214 7.551-1.069 11.042-2.706V14.889l-6.981-.429v3.848c0 1.282-.214 1.78-1.424 2.207-.784.214-1.71.429-2.637.499V8.478h.071C6.34 6.553 12.893 3.775 12.893-4.844c0-7.692-5.342-12.323-12.893-13.462v-7.337h-5.343z" style="fill-opacity:1;fill-rule:nonzero;stroke:none" transform="translate(310.139 133.998)" fill="#6eaa50" data-original="#6eaa50"></path><path d="M477.301 39.706H208.819v129.862h268.482z" style="fill-opacity:1;fill-rule:nonzero;stroke:none" fill="#97d729" data-original="#97d729" class=""></path><path d="M477.301 169.568H208.819V39.706h268.482ZM461.627 55.379H224.492v98.515h237.135z" style="fill-opacity:1;fill-rule:nonzero;stroke:none" fill="#6eaa50" data-original="#6eaa50"></path><path d="M0 0a26.301 26.301 0 0 1 15.125-4.76c14.6 0 26.436 11.836 26.436 26.436a26.3 26.3 0 0 1-4.831 15.225H0Z" style="fill-opacity:1;fill-rule:nonzero;stroke:none" transform="translate(208.819 132.667)" fill="#6eaa50" data-original="#6eaa50"></path><path d="M0 0a26.301 26.301 0 0 1-15.125-4.76v-36.504h37.013a26.314 26.314 0 0 1 4.548 14.827C26.436-11.836 14.6 0 0 0" style="fill-opacity:1;fill-rule:nonzero;stroke:none" transform="translate(223.944 80.97)" fill="#6eaa50" data-original="#6eaa50"></path><path d="M0 0c0-14.601 11.836-26.437 26.436-26.437 6.948 0 13.265 2.685 17.984 7.067v34.595H4.83A26.312 26.312 0 0 1 0 0" style="fill-opacity:1;fill-rule:nonzero;stroke:none" transform="translate(432.88 154.343)" fill="#6eaa50" data-original="#6eaa50"></path><path d="M0 0c-4.719 4.383-11.036 7.067-17.984 7.067-14.6 0-26.436-11.836-26.436-26.437a26.314 26.314 0 0 1 4.548-14.827H0Z" style="fill-opacity:1;fill-rule:nonzero;stroke:none" transform="translate(477.3 73.903)" fill="#6eaa50" data-original="#6eaa50"></path><path d="M0 0c0-24.374-19.759-44.132-44.132-44.132-24.373 0-44.132 19.758-44.132 44.132 0 24.373 19.759 44.131 44.132 44.131C-19.759 44.131 0 24.373 0 0" style="fill-opacity:1;fill-rule:nonzero;stroke:none" transform="translate(387.191 104.637)" fill="#6eaa50" data-original="#6eaa50"></path><path d="M286.422 96.277h-50.708v16.719h50.708zM450.471 96.277h-50.708v16.719h50.708z" style="fill-opacity:1;fill-rule:nonzero;stroke:none" fill="#8bc727" data-original="#8bc727" class=""></path><path d="M0 0v-11.112c2.423.784 4.061 2.565 4.061 5.913C4.061-2.493 2.423-.997 0 0m-5.343 10.33v10.257c-2.279-.784-3.703-2.421-3.703-5.271 0-2.565 1.424-3.919 3.703-4.986m0-28.851c-4.7.144-8.548.999-12.251 2.708v10.614l7.052.498v-4.132c0-1.282.214-1.78 1.424-2.208.997-.356 2.351-.569 3.775-.569V1.711c-6.553 1.781-12.465 4.559-12.465 12.821 0 7.124 4.914 11.896 12.465 12.965v6.553H0v-6.411c3.847-.214 7.551-1.069 11.042-2.706V14.889l-6.981-.429v3.848c0 1.282-.214 1.78-1.425 2.207-.783.214-1.709.429-2.636.499V8.478h.071C6.34 6.553 12.893 3.775 12.893-4.844c0-7.692-5.342-12.323-12.893-13.462v-7.337h-5.343z" style="fill-opacity:1;fill-rule:nonzero;stroke:none" transform="translate(345.432 99.673)" fill="#97d729" data-original="#97d729" class=""></path><path d="M0 0c0-30.896-25.047-55.943-55.943-55.943-30.897 0-55.943 25.047-55.943 55.943 0 30.896 25.046 55.943 55.943 55.943C-25.047 55.943 0 30.896 0 0" style="fill-opacity:1;fill-rule:nonzero;stroke:none" transform="translate(151.28 63.305)" fill="#fee45a" data-original="#fee45a" class=""></path><path d="M0 0c23.241 0 42.311-17.816 44.322-40.535.116 1.31.186 2.634.186 3.974C44.508-11.979 24.581 7.947 0 7.947c-24.581 0-44.508-19.926-44.508-44.508 0-1.34.07-2.664.186-3.974C-42.311-17.816-23.241 0 0 0" style="fill-opacity:1;fill-rule:nonzero;stroke:none" transform="translate(95.337 99.866)" fill="#ffd23c" data-original="#ffd23c" class=""></path><path d="M0 0c-30.896 0-55.943-25.047-55.943-55.943 0-30.897 25.047-55.944 55.943-55.944 30.896 0 55.943 25.047 55.943 55.944C55.943-25.047 30.896 0 0 0m0-11.921c24.274 0 44.022-19.748 44.022-44.022 0-24.274-19.748-44.022-44.022-44.022-24.274 0-44.022 19.748-44.022 44.022 0 24.274 19.748 44.022 44.022 44.022" style="fill-opacity:1;fill-rule:nonzero;stroke:none" transform="translate(95.337 119.249)" fill="#faf58c" data-original="#faf58c" class=""></path><path d="M0 0v-14.086c3.071.993 5.147 3.251 5.147 7.495C5.147-3.16 3.071-1.264 0 0m-6.772 13.095v13.002c-2.89-.993-4.695-3.069-4.695-6.682 0-3.251 1.805-4.967 4.695-6.32m0-36.573c-5.959.182-10.836 1.267-15.531 3.433v13.454l8.94.633v-5.239c0-1.625.27-2.257 1.805-2.798 1.264-.453 2.98-.723 4.786-.723V2.169c-8.308 2.257-15.801 5.779-15.801 16.253 0 9.03 6.229 15.079 15.801 16.434v8.308H0v-8.128c4.876-.27 9.571-1.355 13.998-3.431V18.874l-8.851-.543v4.877c0 1.625-.271 2.257-1.805 2.798-.994.271-2.167.543-3.342.632V10.747h.091c7.946-2.44 16.253-5.961 16.253-16.888 0-9.75-6.773-15.62-16.344-17.064v-9.301h-6.772z" style="fill-opacity:1;fill-rule:nonzero;stroke:none" transform="translate(98.344 57.013)" fill="#ffd23c" data-original="#ffd23c" class=""></path></g></g></svg>